# Blender v2.73 (sub 0) OBJ File: ''
# www.blender.org
o Tree_2
v -0.028823 1.380112 -0.027507
v -0.028595 1.687540 -0.103008
v 0.012644 1.409875 0.094837
v 0.012872 1.717303 0.019337
v -0.028709 1.390426 0.065599
v -0.028709 1.706989 0.065599
v 0.012758 1.390426 -0.060313
v 0.012758 1.706989 -0.060314
v -0.023900 1.453665 -0.016665
v -0.023782 1.500151 0.078515
v -0.002490 1.378335 -0.007451
v -0.002373 1.424821 0.087730
v -0.023841 1.396337 -0.013472
v -0.023841 1.396337 0.084537
v -0.002431 1.473864 -0.013472
v -0.002431 1.473864 0.084536
v -0.023900 1.453665 0.016995
v -0.023782 1.500152 -0.078186
v -0.002490 1.378334 0.007780
v -0.002373 1.424822 -0.087400
v -0.023841 1.396337 0.013802
v -0.023841 1.396338 -0.084207
v -0.002431 1.473864 0.013801
v -0.002431 1.473864 -0.084207
v -0.003893 1.453665 -0.038648
v -0.056166 1.500152 -0.038223
v -0.008954 1.378334 0.038878
v -0.061227 1.424821 0.039304
v -0.005647 1.396337 -0.038435
v -0.059473 1.396337 -0.038435
v -0.005647 1.473864 0.039091
v -0.059473 1.473864 0.039091
v -0.022379 1.453665 -0.038648
v 0.029894 1.500152 -0.038223
v -0.017318 1.378334 0.038878
v 0.034955 1.424821 0.039304
v -0.020625 1.396337 -0.038435
v 0.033201 1.396337 -0.038435
v -0.020625 1.473864 0.039091
v 0.033201 1.473864 0.039091
v -0.026590 1.401330 -0.020873
v -0.026443 1.459438 0.098102
v 0.000171 1.307167 -0.009354
v 0.000318 1.365275 0.109621
v -0.026517 1.329671 -0.016881
v -0.026517 1.329670 0.105630
v 0.000245 1.426579 -0.016881
v 0.000245 1.426579 0.105629
v -0.026590 1.401330 0.021202
v -0.026444 1.459439 -0.097773
v 0.000171 1.307167 0.009684
v 0.000318 1.365276 -0.109292
v -0.026517 1.329671 0.017211
v -0.026517 1.329671 -0.105300
v 0.000245 1.426579 0.017211
v 0.000245 1.426580 -0.105300
v -0.001582 1.401330 -0.048392
v -0.066924 1.459439 -0.047860
v -0.007908 1.307167 0.048516
v -0.073250 1.365276 0.049048
v -0.003774 1.329671 -0.048126
v -0.071058 1.329670 -0.048126
v -0.003774 1.426579 0.048782
v -0.071058 1.426579 0.048782
v -0.024690 1.401330 -0.048392
v 0.040652 1.459439 -0.047860
v -0.018364 1.307167 0.048516
v 0.046978 1.365276 0.049048
v -0.022498 1.329671 -0.048126
v 0.044786 1.329671 -0.048126
v -0.022498 1.426579 0.048782
v 0.044786 1.426579 0.048782
v -0.219441 0.387876 -0.084845
v -0.216382 0.653874 0.395814
v 0.337537 -0.043167 -0.038311
v 0.340596 0.222831 0.442349
v -0.217914 0.059845 -0.068720
v -0.217912 0.059843 0.426224
v 0.339067 0.503457 -0.068721
v 0.339069 0.503455 0.426223
v -0.219441 0.387875 0.085137
v -0.216384 0.653878 -0.395523
v 0.337537 -0.043167 0.038603
v 0.340594 0.222835 -0.442057
v -0.217913 0.059845 0.069012
v -0.217915 0.059847 -0.425931
v 0.339068 0.503457 0.069012
v 0.339067 0.503459 -0.425932
v 0.318380 0.387876 -0.222694
v -0.455018 0.653876 -0.220259
v 0.243505 -0.043168 0.220917
v -0.529893 0.222832 0.223352
v 0.292435 0.059846 -0.221477
v -0.503947 0.059845 -0.221477
v 0.292434 0.503456 0.222135
v -0.503947 0.503456 0.222135
v -0.307603 0.387876 -0.222694
v 0.465795 0.653876 -0.220259
v -0.232728 -0.043168 0.220917
v 0.540671 0.222832 0.223352
v -0.281657 0.059845 -0.221477
v 0.514725 0.059846 -0.221477
v -0.281657 0.503456 0.222135
v 0.514724 0.503457 0.222135
v -0.100108 1.337378 -0.023063
v -0.099273 1.410013 0.108189
v 0.051984 1.219675 -0.010356
v 0.052820 1.292310 0.120896
v -0.099691 1.247804 -0.018660
v -0.099691 1.247803 0.116493
v 0.052402 1.368940 -0.018660
v 0.052402 1.368939 0.116493
v -0.029954 1.337378 0.026462
v -0.029770 1.410014 -0.122258
v 0.003498 1.219675 0.012064
v 0.003682 1.292311 -0.136656
v -0.029862 1.247804 0.021472
v -0.029862 1.247805 -0.131666
v 0.003590 1.368940 0.021472
v 0.003590 1.368940 -0.131666
v 0.072332 1.337379 -0.060572
v -0.138858 1.410014 -0.059907
v 0.051886 1.219675 0.060563
v -0.159304 1.292310 0.061228
v 0.065247 1.247804 -0.060240
v -0.152219 1.247804 -0.060240
v 0.065247 1.368939 0.060896
v -0.152219 1.368939 0.060896
v -0.027578 1.337378 -0.060572
v 0.054099 1.410014 -0.059907
v -0.019671 1.219675 0.060563
v 0.062006 1.292310 0.061228
v -0.024838 1.247804 -0.060240
v 0.059266 1.247804 -0.060240
v -0.024838 1.368940 0.060896
v 0.059266 1.368940 0.060896
v -0.119224 1.243042 -0.028865
v -0.118180 1.333835 0.135200
v 0.070891 1.095912 -0.012981
v 0.071936 1.186706 0.151084
v -0.118703 1.131073 -0.023361
v -0.118702 1.131073 0.145580
v 0.071414 1.282493 -0.023361
v 0.071414 1.282492 0.145580
v -0.119224 1.243041 0.029156
v -0.118180 1.333837 -0.134910
v 0.070891 1.095912 0.013272
v 0.071935 1.186707 -0.150793
v -0.118702 1.131073 0.023652
v -0.118703 1.131074 -0.145289
v 0.071414 1.282493 0.023651
v 0.071413 1.282494 -0.145289
v 0.093699 1.243042 -0.075797
v -0.170288 1.333836 -0.074966
v 0.068141 1.095912 0.075622
v -0.195846 1.186707 0.076453
v 0.084842 1.131074 -0.075382
v -0.186989 1.131073 -0.075382
v 0.084842 1.282493 0.076038
v -0.186989 1.282493 0.076038
v -0.119971 1.243042 -0.075797
v 0.144016 1.333836 -0.074966
v -0.094413 1.095912 0.075622
v 0.169574 1.186707 0.076453
v -0.111114 1.131074 -0.075382
v 0.160717 1.131074 -0.075382
v -0.111114 1.282493 0.076038
v 0.160717 1.282493 0.076038
v -0.143119 1.133037 -0.036117
v -0.141813 1.246529 0.168964
v 0.094525 0.949125 -0.016263
v 0.095831 1.062618 0.188819
v -0.142467 0.993077 -0.029237
v -0.142467 0.993076 0.181939
v 0.095178 1.182352 -0.029238
v 0.095179 1.182351 0.181938
v -0.143119 1.133037 0.036408
v -0.141814 1.246531 -0.168673
v 0.094525 0.949125 0.016554
v 0.095830 1.062620 -0.188528
v -0.142467 0.993077 0.029529
v -0.142467 0.993078 -0.181648
v 0.095178 1.182351 0.029528
v 0.095178 1.182353 -0.181648
v 0.120407 1.133037 -0.094828
v -0.209576 1.246531 -0.093789
v 0.088461 0.949125 0.094446
v -0.241523 1.062618 0.095485
v 0.109337 0.993077 -0.094309
v -0.230453 0.993077 -0.094309
v 0.109337 1.182351 0.094965
v -0.230453 1.182351 0.094965
v -0.146679 1.133037 -0.094828
v 0.183304 1.246531 -0.093789
v -0.114732 0.949125 0.094446
v 0.215251 1.062618 0.095485
v -0.135609 0.993077 -0.094309
v 0.204181 0.993077 -0.094309
v -0.135609 1.182351 0.094965
v 0.204181 1.182351 0.094965
v -0.172988 1.010649 -0.045183
v -0.171356 1.152514 0.211169
v 0.124068 0.780759 -0.020365
v 0.125699 0.922624 0.235987
v -0.172173 0.835699 -0.036583
v -0.172172 0.835697 0.227387
v 0.124884 1.072292 -0.036583
v 0.124885 1.072291 0.227387
v -0.172987 1.010648 0.045474
v -0.171357 1.152516 -0.210878
v 0.124068 0.780759 0.020656
v 0.125698 0.922627 -0.235696
v -0.172172 0.835699 0.036874
v -0.172173 0.835700 -0.227096
v 0.124884 1.072292 0.036874
v 0.124883 1.072293 -0.227096
v 0.153793 1.010649 -0.118617
v -0.258686 1.152515 -0.117319
v 0.113860 0.780759 0.117975
v -0.298620 0.922625 0.119274
v 0.139955 0.835699 -0.117968
v -0.284782 0.835699 -0.117968
v 0.139955 1.072291 0.118625
v -0.284782 1.072291 0.118625
v -0.180065 1.010649 -0.118617
v 0.232414 1.152516 -0.117319
v -0.140131 0.780758 0.117975
v 0.272348 0.922625 0.119274
v -0.166227 0.835699 -0.117968
v 0.258510 0.835699 -0.117968
v -0.166227 1.072291 0.118625
v 0.258510 1.072292 0.118625
v -0.210323 0.841826 -0.056515
v -0.208284 1.019158 0.263925
v 0.160996 0.554464 -0.025492
v 0.163035 0.731796 0.294948
v -0.209305 0.623139 -0.045765
v -0.209304 0.623137 0.284198
v 0.162016 0.918880 -0.045765
v 0.162017 0.918879 0.284197
v -0.210323 0.841826 0.056806
v -0.208285 1.019161 -0.263634
v 0.160996 0.554464 0.025784
v 0.163034 0.731799 -0.294656
v -0.209304 0.623138 0.046057
v -0.209305 0.623140 -0.283906
v 0.162016 0.918880 0.046056
v 0.162015 0.918881 -0.283906
v 0.195525 0.841826 -0.148354
v -0.320074 1.019159 -0.146730
v 0.145609 0.554464 0.147387
v -0.369990 0.731797 0.149011
v 0.178228 0.623139 -0.147542
v -0.352693 0.623139 -0.147542
v 0.178228 0.918880 0.148199
v -0.352693 0.918880 0.148199
v -0.221797 0.841826 -0.148354
v 0.293802 1.019160 -0.146730
v -0.171880 0.554463 0.147387
v 0.343719 0.731797 0.149011
v -0.204500 0.623139 -0.147542
v 0.326422 0.623139 -0.147542
v -0.204500 0.918880 0.148199
v 0.326421 0.918880 0.148199
v -0.256993 0.636206 -0.070680
v -0.254443 0.857871 0.329869
v 0.207156 0.277004 -0.031902
v 0.209705 0.498668 0.368648
v -0.255720 0.362847 -0.057242
v -0.255719 0.362845 0.355211
v 0.208431 0.732524 -0.057243
v 0.208432 0.732522 0.355210
v -0.256992 0.636205 0.070972
v -0.254445 0.857874 -0.329579
v 0.207156 0.277003 0.032194
v 0.209704 0.498672 -0.368357
v -0.255719 0.362847 0.057535
v -0.255720 0.362849 -0.354919
v 0.208431 0.732523 0.057534
v 0.208430 0.732526 -0.354919
v 0.247691 0.636206 -0.185524
v -0.396808 0.857873 -0.183495
v 0.185295 0.277003 0.184152
v -0.459204 0.498669 0.186181
v 0.226069 0.362847 -0.184509
v -0.437582 0.362847 -0.184509
v 0.226069 0.732523 0.185167
v -0.437583 0.732523 0.185167
v -0.273962 0.636206 -0.185524
v 0.370537 0.857873 -0.183495
v -0.211566 0.277003 0.184152
v 0.432933 0.498670 0.186181
v -0.252341 0.362847 -0.184509
v 0.411311 0.362847 -0.184509
v -0.252341 0.732523 0.185167
v 0.411311 0.732523 0.185167
v -0.010173 0.013168 -0.001446
v -0.010173 1.504646 -0.000712
v -0.008831 0.013168 -0.001428
v -0.009851 1.504646 -0.000707
v -0.007542 0.013168 -0.001373
v -0.009542 1.504646 -0.000694
v -0.006353 0.013168 -0.001283
v -0.009256 1.504646 -0.000672
v -0.005311 0.013168 -0.001163
v -0.009006 1.504646 -0.000643
v -0.004456 0.013168 -0.001016
v -0.008801 1.504646 -0.000608
v -0.003821 0.013168 -0.000848
v -0.008649 1.504646 -0.000568
v -0.003430 0.013168 -0.000667
v -0.008555 1.504646 -0.000524
v -0.003298 0.013168 -0.000478
v -0.008523 1.504646 -0.000479
v -0.003430 0.013168 -0.000289
v -0.008555 1.504646 -0.000434
v -0.003821 0.013168 -0.000107
v -0.008649 1.504646 -0.000390
v -0.004456 0.013168 0.000061
v -0.008801 1.504646 -0.000350
v -0.005311 0.013168 0.000207
v -0.009006 1.504646 -0.000315
v -0.006353 0.013168 0.000328
v -0.009256 1.504646 -0.000286
v -0.007542 0.013168 0.000417
v -0.009542 1.504646 -0.000264
v -0.008831 0.013168 0.000472
v -0.009851 1.504646 -0.000251
v -0.010173 0.013168 0.000491
v -0.010173 1.504646 -0.000246
v -0.011514 0.013168 0.000472
v -0.010495 1.504646 -0.000251
v -0.012804 0.013168 0.000417
v -0.010805 1.504646 -0.000264
v -0.013992 0.013168 0.000328
v -0.011090 1.504646 -0.000286
v -0.015034 0.013168 0.000207
v -0.011340 1.504646 -0.000315
v -0.015889 0.013168 0.000061
v -0.011545 1.504646 -0.000350
v -0.016524 0.013168 -0.000107
v -0.011697 1.504646 -0.000390
v -0.016915 0.013168 -0.000289
v -0.011791 1.504646 -0.000434
v -0.017048 0.013168 -0.000478
v -0.011823 1.504646 -0.000479
v -0.016915 0.013168 -0.000667
v -0.011791 1.504646 -0.000524
v -0.016524 0.013168 -0.000848
v -0.011697 1.504646 -0.000568
v -0.015889 0.013168 -0.001016
v -0.011545 1.504646 -0.000608
v -0.015034 0.013168 -0.001163
v -0.011340 1.504646 -0.000643
v -0.013992 0.013168 -0.001283
v -0.011090 1.504646 -0.000672
v -0.012803 0.013168 -0.001373
v -0.010805 1.504646 -0.000694
v -0.011514 0.013168 -0.001428
v -0.010495 1.504646 -0.000707
vt 0.000000 0.000000
vt 1.000000 0.000000
vt 1.000000 1.000000
vt 0.000000 1.000000
vn 0.949800 -0.075300 -0.303600
vn -0.949800 -0.000000 -0.312800
vn 0.958100 0.256800 -0.126600
vn -0.963900 0.266200 0.000000
vn -0.958100 -0.256800 -0.126600
vn 0.963900 -0.266200 -0.000000
vn 0.530100 0.590600 0.608400
vn 0.000000 0.707100 -0.707100
vn 0.530100 -0.590600 -0.608400
vn 0.000000 -0.707100 0.707100
vn 0.582400 0.709700 -0.396500
vn -0.623000 0.782200 0.000000
vn -0.582400 -0.709700 -0.396500
vn 0.623000 -0.782200 -0.000000
vn 0.235000 0.677000 0.697500
vn 0.235000 -0.677000 -0.697500
vn 0.013900 0.000500 -0.999900
vn 0.043000 0.000500 -0.999100
vn 0.042700 0.000500 -0.999100
vn 0.075100 0.000600 -0.997200
vn 0.114800 0.000600 -0.993400
vn 0.114900 0.000600 -0.993400
vn 0.168900 0.000800 -0.985600
vn 0.169200 0.000800 -0.985600
vn 0.255200 0.001000 -0.966900
vn 0.254900 0.001000 -0.967000
vn 0.421200 0.001500 -0.907000
vn 0.421400 0.001500 -0.906900
vn 0.819400 0.002900 -0.573200
vn 0.819600 0.002900 -0.572900
vn 0.820200 0.002900 0.572100
vn 0.819600 0.002900 0.572900
vn 0.420600 0.001500 0.907200
vn 0.421400 0.001500 0.906900
vn 0.254800 0.001000 0.967000
vn 0.169500 0.000800 0.985500
vn 0.169300 0.000800 0.985600
vn 0.114800 0.000600 0.993400
vn 0.114900 0.000600 0.993400
vn 0.075100 0.000600 0.997200
vn 0.042600 0.000500 0.999100
vn 0.042700 0.000500 0.999100
vn 0.014300 0.000500 0.999900
vn 0.013900 0.000500 0.999900
vn -0.014300 0.000500 0.999900
vn -0.013900 0.000500 0.999900
vn -0.042600 0.000500 0.999100
vn -0.042700 0.000500 0.999100
vn -0.075100 0.000600 0.997200
vn -0.114800 0.000600 0.993400
vn -0.114900 0.000600 0.993400
vn -0.169500 0.000800 0.985500
vn -0.169300 0.000800 0.985600
vn -0.254800 0.001000 0.967000
vn -0.420600 0.001500 0.907200
vn -0.421400 0.001500 0.906900
vn -0.820200 0.002900 0.572100
vn -0.819600 0.002900 0.572900
vn -0.819400 0.002900 -0.573200
vn -0.819600 0.002900 -0.572900
vn -0.421200 0.001500 -0.907000
vn -0.421400 0.001500 -0.906900
vn -0.255200 0.001000 -0.966900
vn -0.254900 0.001000 -0.967000
vn -0.168900 0.000800 -0.985600
vn -0.169200 0.000800 -0.985600
vn -0.114800 0.000600 -0.993400
vn -0.114900 0.000600 -0.993400
vn -0.075100 0.000600 -0.997200
vn 0.000000 1.000000 0.000000
vn 0.000000 0.999800 -0.020000
vn 0.000000 0.999800 -0.020300
vn 0.000000 1.000000 -0.002500
vn 0.000000 0.999800 0.020300
vn 0.000000 0.999800 0.020600
vn 0.000000 1.000000 0.005000
vn 0.000000 1.000000 0.005200
vn 0.000000 1.000000 -0.001300
vn 0.000000 1.000000 -0.005200
vn 0.000000 1.000000 0.001500
vn 0.000000 1.000000 0.000300
vn 0.000000 1.000000 -0.000300
vn -0.013900 0.000500 -0.999900
vn -0.043000 0.000500 -0.999100
vn -0.042700 0.000500 -0.999100
vn 0.000000 -1.000000 0.003200
vn 0.000000 -1.000000 -0.000100
vn 0.000100 -1.000000 -0.001200
vn 0.000400 -1.000000 -0.001100
vn 0.000000 -1.000000 0.000000
vn 0.000200 -1.000000 0.000700
vn 0.000000 -1.000000 0.000100
vn -0.000200 -1.000000 0.000800
vn -0.000400 -1.000000 -0.001200
vn -0.000100 -1.000000 -0.001200
vn -0.000100 -1.000000 0.000000
vn -0.000000 -1.000000 0.000300
vn -0.000000 -1.000000 -0.000400
s off
f 1/1/1 2/2/1 4/3/1
f 1/1/1 4/3/1 3/4/1
f 5/1/2 6/2/2 8/3/2
f 5/1/2 8/3/2 7/4/2
f 9/1/3 10/2/3 12/3/3
f 9/1/3 12/3/3 11/4/3
f 13/1/4 14/2/4 16/3/4
f 13/1/4 16/3/4 15/4/4
f 17/1/5 18/2/5 20/3/5
f 17/1/5 20/3/5 19/4/5
f 21/1/6 22/2/6 24/3/6
f 21/1/6 24/3/6 23/4/6
f 25/1/7 26/2/7 28/3/7
f 25/1/7 28/3/7 27/4/7
f 29/1/8 30/2/8 32/3/8
f 29/1/8 32/3/8 31/4/8
f 33/1/9 34/2/9 36/3/9
f 33/1/9 36/3/9 35/4/9
f 37/1/10 38/2/10 40/3/10
f 37/1/10 40/3/10 39/4/10
f 41/1/3 42/2/3 44/3/3
f 41/1/3 44/3/3 43/4/3
f 45/1/4 46/2/4 48/3/4
f 45/1/4 48/3/4 47/4/4
f 49/1/5 50/2/5 52/3/5
f 49/1/5 52/3/5 51/4/5
f 53/1/6 54/2/6 56/3/6
f 53/1/6 56/3/6 55/4/6
f 57/1/7 58/2/7 60/3/7
f 57/1/7 60/3/7 59/4/7
f 61/1/8 62/2/8 64/3/8
f 61/1/8 64/3/8 63/4/8
f 65/1/9 66/2/9 68/3/9
f 65/1/9 68/3/9 67/4/9
f 69/1/10 70/2/10 72/3/10
f 69/1/10 72/3/10 71/4/10
f 73/1/11 74/2/11 76/3/11
f 73/1/11 76/3/11 75/4/11
f 77/1/12 78/2/12 80/3/12
f 77/1/12 80/3/12 79/4/12
f 81/1/13 82/2/13 84/3/13
f 81/1/13 84/3/13 83/4/13
f 85/1/14 86/2/14 88/3/14
f 85/1/14 88/3/14 87/4/14
f 89/1/15 90/2/15 92/3/15
f 89/1/15 92/3/15 91/4/15
f 93/1/8 94/2/8 96/3/8
f 93/1/8 96/3/8 95/4/8
f 97/1/16 98/2/16 100/3/16
f 97/1/16 100/3/16 99/4/16
f 101/1/10 102/2/10 104/3/10
f 101/1/10 104/3/10 103/4/10
f 105/1/11 106/2/11 108/3/11
f 105/1/11 108/3/11 107/4/11
f 109/1/12 110/2/12 112/3/12
f 109/1/12 112/3/12 111/4/12
f 113/1/5 114/2/5 116/3/5
f 113/1/5 116/3/5 115/4/5
f 117/1/6 118/2/6 120/3/6
f 117/1/6 120/3/6 119/4/6
f 121/1/15 122/2/15 124/3/15
f 121/1/15 124/3/15 123/4/15
f 125/1/8 126/2/8 128/3/8
f 125/1/8 128/3/8 127/4/8
f 129/1/9 130/2/9 132/3/9
f 129/1/9 132/3/9 131/4/9
f 133/1/10 134/2/10 136/3/10
f 133/1/10 136/3/10 135/4/10
f 137/1/11 138/2/11 140/3/11
f 137/1/11 140/3/11 139/4/11
f 141/1/12 142/2/12 144/3/12
f 141/1/12 144/3/12 143/4/12
f 145/1/13 146/2/13 148/3/13
f 145/1/13 148/3/13 147/4/13
f 149/1/14 150/2/14 152/3/14
f 149/1/14 152/3/14 151/4/14
f 153/1/15 154/2/15 156/3/15
f 153/1/15 156/3/15 155/4/15
f 157/1/8 158/2/8 160/3/8
f 157/1/8 160/3/8 159/4/8
f 161/1/16 162/2/16 164/3/16
f 161/1/16 164/3/16 163/4/16
f 165/1/10 166/2/10 168/3/10
f 165/1/10 168/3/10 167/4/10
f 169/1/11 170/2/11 172/3/11
f 169/1/11 172/3/11 171/4/11
f 173/1/12 174/2/12 176/3/12
f 173/1/12 176/3/12 175/4/12
f 177/1/13 178/2/13 180/3/13
f 177/1/13 180/3/13 179/4/13
f 181/1/14 182/2/14 184/3/14
f 181/1/14 184/3/14 183/4/14
f 185/1/15 186/2/15 188/3/15
f 185/1/15 188/3/15 187/4/15
f 189/1/8 190/2/8 192/3/8
f 189/1/8 192/3/8 191/4/8
f 193/1/16 194/2/16 196/3/16
f 193/1/16 196/3/16 195/4/16
f 197/1/10 198/2/10 200/3/10
f 197/1/10 200/3/10 199/4/10
f 201/1/11 202/2/11 204/3/11
f 201/1/11 204/3/11 203/4/11
f 205/1/12 206/2/12 208/3/12
f 205/1/12 208/3/12 207/4/12
f 209/1/13 210/2/13 212/3/13
f 209/1/13 212/3/13 211/4/13
f 213/1/14 214/2/14 216/3/14
f 213/1/14 216/3/14 215/4/14
f 217/1/15 218/2/15 220/3/15
f 217/1/15 220/3/15 219/4/15
f 221/1/8 222/2/8 224/3/8
f 221/1/8 224/3/8 223/4/8
f 225/1/16 226/2/16 228/3/16
f 225/1/16 228/3/16 227/4/16
f 229/1/10 230/2/10 232/3/10
f 229/1/10 232/3/10 231/4/10
f 233/1/11 234/2/11 236/3/11
f 233/1/11 236/3/11 235/4/11
f 237/1/12 238/2/12 240/3/12
f 237/1/12 240/3/12 239/4/12
f 241/1/13 242/2/13 244/3/13
f 241/1/13 244/3/13 243/4/13
f 245/1/14 246/2/14 248/3/14
f 245/1/14 248/3/14 247/4/14
f 249/1/15 250/2/15 252/3/15
f 249/1/15 252/3/15 251/4/15
f 253/1/8 254/2/8 256/3/8
f 253/1/8 256/3/8 255/4/8
f 257/1/16 258/2/16 260/3/16
f 257/1/16 260/3/16 259/4/16
f 261/1/10 262/2/10 264/3/10
f 261/1/10 264/3/10 263/4/10
f 265/1/11 266/2/11 268/3/11
f 265/1/11 268/3/11 267/4/11
f 269/1/12 270/2/12 272/3/12
f 269/1/12 272/3/12 271/4/12
f 273/1/13 274/2/13 276/3/13
f 273/1/13 276/3/13 275/4/13
f 277/1/14 278/2/14 280/3/14
f 277/1/14 280/3/14 279/4/14
f 281/1/15 282/2/15 284/3/15
f 281/1/15 284/3/15 283/4/15
f 285/1/8 286/2/8 288/3/8
f 285/1/8 288/3/8 287/4/8
f 289/1/16 290/2/16 292/3/16
f 289/1/16 292/3/16 291/4/16
f 293/1/10 294/2/10 296/3/10
f 293/1/10 296/3/10 295/4/10
f 297/1/17 298/1/17 300/1/17
f 297/1/17 300/1/17 299/1/17
f 299/1/18 300/1/18 302/1/18
f 299/1/19 302/1/19 301/1/19
f 301/1/20 302/1/20 304/1/20
f 301/1/20 304/1/20 303/1/20
f 303/1/21 304/1/21 306/1/21
f 303/1/22 306/1/22 305/1/22
f 305/1/23 306/1/23 308/1/23
f 305/1/24 308/1/24 307/1/24
f 307/1/25 308/1/25 310/1/25
f 307/1/26 310/1/26 309/1/26
f 309/1/27 310/1/27 312/1/27
f 309/1/28 312/1/28 311/1/28
f 311/1/29 312/1/29 314/1/29
f 311/1/30 314/1/30 313/1/30
f 313/1/31 314/1/31 316/1/31
f 313/1/32 316/1/32 315/1/32
f 315/1/33 316/1/33 318/1/33
f 315/1/34 318/1/34 317/1/34
f 317/1/35 318/1/35 320/1/35
f 317/1/35 320/1/35 319/1/35
f 319/1/36 320/1/36 322/1/36
f 319/1/37 322/1/37 321/1/37
f 321/1/38 322/1/38 324/1/38
f 321/1/39 324/1/39 323/1/39
f 323/1/40 324/1/40 326/1/40
f 323/1/40 326/1/40 325/1/40
f 325/1/41 326/1/41 328/1/41
f 325/1/42 328/1/42 327/1/42
f 327/1/43 328/1/43 330/1/43
f 327/1/44 330/1/44 329/1/44
f 329/1/45 330/1/45 332/1/45
f 329/1/46 332/1/46 331/1/46
f 331/1/47 332/1/47 334/1/47
f 331/1/48 334/1/48 333/1/48
f 333/1/49 334/1/49 336/1/49
f 333/1/49 336/1/49 335/1/49
f 335/1/50 336/1/50 338/1/50
f 335/1/51 338/1/51 337/1/51
f 337/1/52 338/1/52 340/1/52
f 337/1/53 340/1/53 339/1/53
f 339/1/54 340/1/54 342/1/54
f 339/1/54 342/1/54 341/1/54
f 341/1/55 342/1/55 344/1/55
f 341/1/56 344/1/56 343/1/56
f 343/1/57 344/1/57 346/1/57
f 343/1/58 346/1/58 345/1/58
f 345/1/59 346/1/59 348/1/59
f 345/1/60 348/1/60 347/1/60
f 347/1/61 348/1/61 350/1/61
f 347/1/62 350/1/62 349/1/62
f 349/1/63 350/1/63 352/1/63
f 349/1/64 352/1/64 351/1/64
f 351/1/65 352/1/65 354/1/65
f 351/1/66 354/1/66 353/1/66
f 353/1/67 354/1/67 356/1/67
f 353/1/68 356/1/68 355/1/68
f 355/1/69 356/1/69 358/1/69
f 355/1/69 358/1/69 357/1/69
f 300/1/70 298/1/70 302/1/70
f 298/1/71 360/1/71 358/1/71
f 358/1/72 356/1/72 354/1/72
f 354/1/70 352/1/70 350/1/70
f 350/1/73 348/1/73 346/1/73
f 346/1/70 344/1/70 342/1/70
f 342/1/70 340/1/70 338/1/70
f 338/1/74 336/1/74 334/1/74
f 334/1/75 332/1/75 330/1/75
f 330/1/70 328/1/70 326/1/70
f 326/1/74 324/1/74 322/1/74
f 322/1/70 320/1/70 318/1/70
f 318/1/76 316/1/76 314/1/76
f 314/1/70 312/1/70 310/1/70
f 310/1/70 308/1/70 306/1/70
f 306/1/72 304/1/72 302/1/72
f 298/1/70 358/1/70 302/1/70
f 358/1/77 354/1/77 350/1/77
f 350/1/78 346/1/78 342/1/78
f 342/1/79 338/1/79 334/1/79
f 334/1/70 330/1/70 326/1/70
f 326/1/79 322/1/79 318/1/79
f 318/1/70 314/1/70 310/1/70
f 310/1/77 306/1/77 302/1/77
f 358/1/70 350/1/70 302/1/70
f 350/1/70 342/1/70 334/1/70
f 334/1/80 326/1/80 318/1/80
f 318/1/70 310/1/70 302/1/70
f 350/1/81 334/1/81 302/1/81
f 334/1/82 318/1/82 302/1/82
f 359/1/83 360/1/83 298/1/83
f 359/1/83 298/1/83 297/1/83
f 357/1/84 358/1/84 360/1/84
f 357/1/85 360/1/85 359/1/85
f 297/1/86 299/1/86 359/1/86
f 299/1/87 301/1/87 303/1/87
f 303/1/88 305/1/88 307/1/88
f 307/1/89 309/1/89 311/1/89
f 311/1/90 313/1/90 315/1/90
f 315/1/91 317/1/91 319/1/91
f 319/1/90 321/1/90 323/1/90
f 323/1/92 325/1/92 327/1/92
f 327/1/90 329/1/90 331/1/90
f 331/1/87 333/1/87 335/1/87
f 335/1/90 337/1/90 339/1/90
f 339/1/93 341/1/93 343/1/93
f 343/1/90 345/1/90 347/1/90
f 347/1/94 349/1/94 351/1/94
f 351/1/95 353/1/95 355/1/95
f 355/1/92 357/1/92 359/1/92
f 299/1/90 303/1/90 359/1/90
f 303/1/92 307/1/92 311/1/92
f 311/1/96 315/1/96 319/1/96
f 319/1/90 323/1/90 327/1/90
f 327/1/90 331/1/90 335/1/90
f 335/1/97 339/1/97 343/1/97
f 343/1/90 347/1/90 351/1/90
f 351/1/98 355/1/98 359/1/98
f 303/1/87 311/1/87 359/1/87
f 311/1/92 319/1/92 327/1/92
f 327/1/92 335/1/92 343/1/92
f 343/1/90 351/1/90 359/1/90
f 311/1/90 327/1/90 359/1/90
f 327/1/90 343/1/90 359/1/90
